<svg width="64" height="64" viewBox="0 0 64 64" fill="none" xmlns="http://www.w3.org/2000/svg" role="img" aria-label="Service Mode">
  <defs>
    <linearGradient id="g" x1="14" y1="52" x2="52" y2="10" gradientUnits="userSpaceOnUse">
      <stop stop-color="#8B5CF6"/><stop offset=".55" stop-color="#3B82F6"/><stop offset="1" stop-color="#2DD4BF"/>
    </linearGradient>
    <filter id="glow" x="-30%" y="-30%" width="160%" height="160%">
      <feGaussianBlur stdDeviation="1.5" result="blur"/>
      <feColorMatrix in="blur" type="matrix" values="0 0 0 0 .55 0 0 0 0 .36 0 0 0 0 1 0 0 0 .5 0"/>
      <feBlend in="SourceGraphic"/>
    </filter>
  </defs>
  <g stroke="url(#g)" stroke-width="3" stroke-linecap="round" stroke-linejoin="round" filter="url(#glow)">
    <path d="M32 12v14"/>
    <path d="M25 19h14"/>
    <path d="M32 26l-10 26"/>
    <path d="M32 26l10 26"/>
    <path d="M24 38h16"/>
    <path d="M27 46h10"/>
    <path d="M17 24c-5 5-7 12-6 19"/>
    <path d="M47 24c5 5 7 12 6 19"/>
    <path d="M22 29c-3 3-4 7-4 12"/>
    <path d="M42 29c3 3 4 7 4 12"/>
  </g>
</svg>
