<svg width="64" height="64" viewBox="0 0 64 64" fill="none" xmlns="http://www.w3.org/2000/svg" role="img" aria-label="Team">
  <defs>
    <linearGradient id="g" x1="11" y1="52" x2="53" y2="12" gradientUnits="userSpaceOnUse">
      <stop stop-color="#8B5CF6"/><stop offset=".55" stop-color="#3B82F6"/><stop offset="1" stop-color="#2DD4BF"/>
    </linearGradient>
    <filter id="glow" x="-30%" y="-30%" width="160%" height="160%">
      <feGaussianBlur stdDeviation="1.5" result="blur"/>
      <feColorMatrix in="blur" type="matrix" values="0 0 0 0 .55 0 0 0 0 .36 0 0 0 0 1 0 0 0 .5 0"/>
      <feBlend in="SourceGraphic"/>
    </filter>
  </defs>
  <g stroke="url(#g)" stroke-width="3" stroke-linecap="round" stroke-linejoin="round" filter="url(#glow)">
    <circle cx="32" cy="20" r="6"/>
    <circle cx="18" cy="25" r="5"/>
    <circle cx="46" cy="25" r="5"/>
    <path d="M22 48v-4c0-6 4-10 10-10s10 4 10 10v4"/>
    <path d="M9 48v-3c0-5 3-8 8-8 3 0 5 1 7 3"/>
    <path d="M55 48v-3c0-5-3-8-8-8-3 0-5 1-7 3"/>
    <path d="M18 52h28"/>
    <path d="M25 52v-6"/>
    <path d="M32 52v-9"/>
    <path d="M39 52v-6"/>
  </g>
</svg>
